<?xml version="1.0" encoding="utf-8"?>
<!-- Generator: Adobe Illustrator 18.1.1, SVG Export Plug-In . SVG Version: 6.00 Build 0)  -->
<svg version="1.1" id="Layer_1" xmlns="http://www.w3.org/2000/svg" xmlns:xlink="http://www.w3.org/1999/xlink" x="0px" y="0px"
	 viewBox="0 0 523.3 692.3" style="enable-background:new 0 0 523.3 692.3;" xml:space="preserve">
<style type="text/css">
	.st0{clip-path:url(#SVGID_3_);fill:url(#SVGID_4_);}
	.st1{clip-path:url(#SVGID_7_);fill:url(#SVGID_8_);}
	.st2{clip-path:url(#SVGID_11_);fill:url(#SVGID_12_);}
	.st3{clip-path:url(#SVGID_15_);fill:url(#SVGID_16_);}
	.st4{clip-path:url(#SVGID_19_);fill:url(#SVGID_20_);}
	.st5{clip-path:url(#SVGID_22_);}
	.st6{clip-path:url(#SVGID_25_);fill:url(#SVGID_26_);}
	.st7{clip-path:url(#SVGID_29_);fill:url(#SVGID_30_);}
	.st8{clip-path:url(#SVGID_33_);fill:url(#SVGID_34_);}
	.st9{clip-path:url(#SVGID_37_);fill:url(#SVGID_38_);}
	.st10{clip-path:url(#SVGID_41_);fill:url(#SVGID_42_);}
	.st11{clip-path:url(#SVGID_44_);}
	.st12{clip-path:url(#SVGID_47_);fill:url(#SVGID_48_);}
	.st13{clip-path:url(#SVGID_47_);fill:url(#SVGID_49_);}
	.st14{clip-path:url(#SVGID_52_);fill:url(#SVGID_53_);}
	.st15{clip-path:url(#SVGID_52_);fill:url(#SVGID_54_);}
	.st16{clip-path:url(#SVGID_57_);fill:url(#SVGID_58_);}
	.st17{clip-path:url(#SVGID_57_);fill:url(#SVGID_59_);}
	.st18{clip-path:url(#SVGID_62_);fill:url(#SVGID_63_);}
	.st19{clip-path:url(#SVGID_62_);fill:url(#SVGID_64_);}
	.st20{clip-path:url(#SVGID_67_);fill:url(#SVGID_68_);}
	.st21{clip-path:url(#SVGID_67_);fill:url(#SVGID_69_);}
	.st22{clip-path:url(#SVGID_71_);}
</style>
<g>
	<defs>
		<path id="SVGID_1_" d="M282.5,8.9c-2.2-3.8-7.6-6.9-12-6.9h-17.7c-4.4,0-9.8,3.1-12,6.9L232,24.2c-2.2,3.8-2.2,10.1,0,13.9
			l8.8,15.3c2.2,3.8,7.6,6.9,12,6.9h17.7c4.4,0,9.8-3.1,12-6.9l8.8-15.3c2.2-3.8,2.2-10.1,0-13.9L282.5,8.9z"/>
	</defs>
	<linearGradient id="SVGID_2_" gradientUnits="userSpaceOnUse" x1="230.3516" y1="31.1639" x2="292.9946" y2="31.1639">
		<stop  offset="0" style="stop-color:#EBC51C"/>
		<stop  offset="0.3329" style="stop-color:#ECB020"/>
		<stop  offset="1" style="stop-color:#EE7E22"/>
	</linearGradient>
	<use xlink:href="#SVGID_1_"  style="overflow:visible;fill:url(#SVGID_2_);"/>
	<clipPath id="SVGID_3_">
		<use xlink:href="#SVGID_1_"  style="overflow:visible;"/>
	</clipPath>
	<linearGradient id="SVGID_4_" gradientUnits="userSpaceOnUse" x1="229.8008" y1="31.1639" x2="293.5454" y2="31.1639">
		<stop  offset="0" style="stop-color:#EBC51C"/>
		<stop  offset="0.3329" style="stop-color:#ECB020"/>
		<stop  offset="1" style="stop-color:#EE7E22"/>
	</linearGradient>
	<rect x="229.8" y="2" class="st0" width="63.7" height="58.3"/>
</g>
<g>
	<defs>
		<path id="SVGID_5_" d="M168.3,8.9c-2.2-3.8-7.6-6.9-12-6.9h-17.7c-4.4,0-9.8,3.1-12,6.9l-8.8,15.3c-2.2,3.8-2.2,10.1,0,13.9
			l8.8,15.3c2.2,3.8,7.6,6.9,12,6.9h17.7c4.4,0,9.8-3.1,12-6.9l8.8-15.3c2.2-3.8,2.2-10.1,0-13.9L168.3,8.9z"/>
	</defs>
	<linearGradient id="SVGID_6_" gradientUnits="userSpaceOnUse" x1="116.1758" y1="31.1639" x2="178.8188" y2="31.1639">
		<stop  offset="0" style="stop-color:#138DB3"/>
		<stop  offset="1" style="stop-color:#2BAD67"/>
	</linearGradient>
	<use xlink:href="#SVGID_5_"  style="overflow:visible;fill:url(#SVGID_6_);"/>
	<clipPath id="SVGID_7_">
		<use xlink:href="#SVGID_5_"  style="overflow:visible;"/>
	</clipPath>
	<linearGradient id="SVGID_8_" gradientUnits="userSpaceOnUse" x1="115.625" y1="31.1639" x2="179.3696" y2="31.1639">
		<stop  offset="0" style="stop-color:#138DB3"/>
		<stop  offset="1" style="stop-color:#2BAD67"/>
	</linearGradient>
	<rect x="115.6" y="2" class="st1" width="63.7" height="58.3"/>
</g>
<g>
	<defs>
		<path id="SVGID_9_" d="M54.2,8.9C52,5.1,46.6,2,42.1,2H24.5c-4.4,0-9.8,3.1-12,6.9L3.7,24.2c-2.2,3.8-2.2,10.1,0,13.9l8.8,15.3
			c2.2,3.8,7.6,6.9,12,6.9h17.7c4.4,0,9.8-3.1,12-6.9L63,38.1c2.2-3.8,2.2-10.1,0-13.9L54.2,8.9z"/>
	</defs>
	<linearGradient id="SVGID_10_" gradientUnits="userSpaceOnUse" x1="2" y1="31.1639" x2="64.643" y2="31.1639">
		<stop  offset="0" style="stop-color:#822A81"/>
		<stop  offset="1" style="stop-color:#27AAE1"/>
	</linearGradient>
	<use xlink:href="#SVGID_9_"  style="overflow:visible;fill:url(#SVGID_10_);"/>
	<clipPath id="SVGID_11_">
		<use xlink:href="#SVGID_9_"  style="overflow:visible;"/>
	</clipPath>
	<linearGradient id="SVGID_12_" gradientUnits="userSpaceOnUse" x1="1.4492" y1="31.1639" x2="65.1938" y2="31.1639">
		<stop  offset="0" style="stop-color:#822A81"/>
		<stop  offset="1" style="stop-color:#27AAE1"/>
	</linearGradient>
	<rect x="1.4" y="2" class="st2" width="63.7" height="58.3"/>
</g>
<g>
	<defs>
		<path id="SVGID_13_" d="M54.2,146.3c-2.2-3.8-7.6-6.9-12-6.9H24.5c-4.4,0-9.8,3.1-12,6.9l-8.8,15.3c-2.2,3.8-2.2,10.1,0,13.9
			l8.8,15.3c2.2,3.8,7.6,6.9,12,6.9h17.7c4.4,0,9.8-3.1,12-6.9l8.8-15.3c2.2-3.8,2.2-10.1,0-13.9L54.2,146.3z"/>
	</defs>
	<linearGradient id="SVGID_14_" gradientUnits="userSpaceOnUse" x1="2" y1="168.5628" x2="64.643" y2="168.5628">
		<stop  offset="0" style="stop-color:#0066A0"/>
		<stop  offset="1" style="stop-color:#4495D1"/>
	</linearGradient>
	<use xlink:href="#SVGID_13_"  style="overflow:visible;fill:url(#SVGID_14_);"/>
	<clipPath id="SVGID_15_">
		<use xlink:href="#SVGID_13_"  style="overflow:visible;"/>
	</clipPath>
	<linearGradient id="SVGID_16_" gradientUnits="userSpaceOnUse" x1="1.4492" y1="168.5628" x2="65.1938" y2="168.5628">
		<stop  offset="0" style="stop-color:#0066A0"/>
		<stop  offset="1" style="stop-color:#4495D1"/>
	</linearGradient>
	<rect x="1.4" y="139.4" class="st3" width="63.7" height="58.3"/>
</g>
<g>
	<defs>
		<path id="SVGID_17_" d="M396.7,8.9c-2.2-3.8-7.6-6.9-12-6.9H367c-4.4,0-9.8,3.1-12,6.9l-8.8,15.3c-2.2,3.8-2.2,10.1,0,13.9
			l8.8,15.3c2.2,3.8,7.6,6.9,12,6.9h17.7c4.4,0,9.8-3.1,12-6.9l8.8-15.3c2.2-3.8,2.2-10.1,0-13.9L396.7,8.9z"/>
	</defs>
	<linearGradient id="SVGID_18_" gradientUnits="userSpaceOnUse" x1="344.5274" y1="31.1639" x2="407.1704" y2="31.1639">
		<stop  offset="0" style="stop-color:#C61880"/>
		<stop  offset="0.3642" style="stop-color:#AF2180"/>
		<stop  offset="1" style="stop-color:#822A81"/>
	</linearGradient>
	<use xlink:href="#SVGID_17_"  style="overflow:visible;fill:url(#SVGID_18_);"/>
	<clipPath id="SVGID_19_">
		<use xlink:href="#SVGID_17_"  style="overflow:visible;"/>
	</clipPath>
	<linearGradient id="SVGID_20_" gradientUnits="userSpaceOnUse" x1="343.9767" y1="31.1639" x2="407.7212" y2="31.1639">
		<stop  offset="0" style="stop-color:#C61880"/>
		<stop  offset="0.3642" style="stop-color:#AF2180"/>
		<stop  offset="1" style="stop-color:#822A81"/>
	</linearGradient>
	<rect x="344" y="2" class="st4" width="63.7" height="58.3"/>
</g>
<g>
	<defs>
		<path id="SVGID_21_" d="M510.9,8.9c-2.2-3.8-7.6-6.9-12-6.9h-17.7c-4.4,0-9.8,3.1-12,6.9l-8.8,15.3c-2.2,3.8-2.2,10.1,0,13.9
			l8.8,15.3c2.2,3.8,7.6,6.9,12,6.9h17.7c4.4,0,9.8-3.1,12-6.9l8.8-15.3c2.2-3.8,2.2-10.1,0-13.9L510.9,8.9z"/>
	</defs>
	<use xlink:href="#SVGID_21_"  style="overflow:visible;"/>
	<clipPath id="SVGID_22_">
		<use xlink:href="#SVGID_21_"  style="overflow:visible;"/>
	</clipPath>
	<rect x="458.2" y="2" class="st5" width="63.7" height="58.3"/>
</g>
<g>
	<defs>
		<path id="SVGID_23_" d="M280.3,126.7c0.9-0.8,1.7-1.8,2.2-2.7l8.8-15.3c2.2-3.8,2.2-10.1,0-13.9l-8.8-15.3
			c-2.2-3.8-7.6-6.9-12-6.9h-17.7c-4.4,0-9.8,3.1-12,6.9L232,94.8c-2.2,3.8-2.2,10.1,0,13.9l8.8,15.3c0.6,1,1.3,1.9,2.2,2.7
			L280.3,126.7z"/>
	</defs>
	<linearGradient id="SVGID_24_" gradientUnits="userSpaceOnUse" x1="230.3516" y1="99.6553" x2="292.9946" y2="99.6553">
		<stop  offset="0" style="stop-color:#EBC51C"/>
		<stop  offset="0.3329" style="stop-color:#ECB020"/>
		<stop  offset="1" style="stop-color:#EE7E22"/>
	</linearGradient>
	<use xlink:href="#SVGID_23_"  style="overflow:visible;fill:url(#SVGID_24_);"/>
	<clipPath id="SVGID_25_">
		<use xlink:href="#SVGID_23_"  style="overflow:visible;"/>
	</clipPath>
	<linearGradient id="SVGID_26_" gradientUnits="userSpaceOnUse" x1="229.8008" y1="101.7565" x2="293.5454" y2="101.7565">
		<stop  offset="0" style="stop-color:#EBC51C"/>
		<stop  offset="0.3329" style="stop-color:#ECB020"/>
		<stop  offset="1" style="stop-color:#EE7E22"/>
	</linearGradient>
	<rect x="229.8" y="72.6" class="st6" width="63.7" height="58.3"/>
</g>
<g>
	<defs>
		<path id="SVGID_27_" d="M166.1,126.7c0.9-0.8,1.7-1.8,2.2-2.7l8.8-15.3c2.2-3.8,2.2-10.1,0-13.9l-8.8-15.3
			c-2.2-3.8-7.6-6.9-12-6.9h-17.7c-4.4,0-9.8,3.1-12,6.9l-8.8,15.3c-2.2,3.8-2.2,10.1,0,13.9l8.8,15.3c0.6,1,1.3,1.9,2.2,2.7
			L166.1,126.7z"/>
	</defs>
	<linearGradient id="SVGID_28_" gradientUnits="userSpaceOnUse" x1="116.1758" y1="99.6553" x2="178.8188" y2="99.6553">
		<stop  offset="0" style="stop-color:#138DB3"/>
		<stop  offset="1" style="stop-color:#2BAD67"/>
	</linearGradient>
	<use xlink:href="#SVGID_27_"  style="overflow:visible;fill:url(#SVGID_28_);"/>
	<clipPath id="SVGID_29_">
		<use xlink:href="#SVGID_27_"  style="overflow:visible;"/>
	</clipPath>
	<linearGradient id="SVGID_30_" gradientUnits="userSpaceOnUse" x1="115.625" y1="101.7565" x2="179.3696" y2="101.7565">
		<stop  offset="0" style="stop-color:#138DB3"/>
		<stop  offset="1" style="stop-color:#2BAD67"/>
	</linearGradient>
	<rect x="115.6" y="72.6" class="st7" width="63.7" height="58.3"/>
</g>
<g>
	<defs>
		<path id="SVGID_31_" d="M166.1,193.5c0.9-0.8,1.7-1.8,2.2-2.7l8.8-15.3c2.2-3.8,2.2-10.1,0-13.9l-8.8-15.3
			c-2.2-3.8-7.6-6.9-12-6.9h-17.7c-4.4,0-9.8,3.1-12,6.9l-8.8,15.3c-2.2,3.8-2.2,10.1,0,13.9l8.8,15.3c0.6,1,1.3,1.9,2.2,2.7
			L166.1,193.5z"/>
	</defs>
	<linearGradient id="SVGID_32_" gradientUnits="userSpaceOnUse" x1="116.1758" y1="166.4616" x2="178.8188" y2="166.4616">
		<stop  offset="0" style="stop-color:#0066A0"/>
		<stop  offset="1" style="stop-color:#4495D1"/>
	</linearGradient>
	<use xlink:href="#SVGID_31_"  style="overflow:visible;fill:url(#SVGID_32_);"/>
	<clipPath id="SVGID_33_">
		<use xlink:href="#SVGID_31_"  style="overflow:visible;"/>
	</clipPath>
	<linearGradient id="SVGID_34_" gradientUnits="userSpaceOnUse" x1="115.625" y1="168.5628" x2="179.3696" y2="168.5628">
		<stop  offset="0" style="stop-color:#0066A0"/>
		<stop  offset="1" style="stop-color:#4495D1"/>
	</linearGradient>
	<rect x="115.6" y="139.4" class="st8" width="63.7" height="58.3"/>
</g>
<g>
	<defs>
		<path id="SVGID_35_" d="M51.9,126.7c0.9-0.8,1.7-1.8,2.2-2.7l8.8-15.3c2.2-3.8,2.2-10.1,0-13.9l-8.8-15.3c-2.2-3.8-7.6-6.9-12-6.9
			H24.5c-4.4,0-9.8,3.1-12,6.9L3.7,94.8c-2.2,3.8-2.2,10.1,0,13.9l8.8,15.3c0.6,1,1.3,1.9,2.2,2.7L51.9,126.7z"/>
	</defs>
	<linearGradient id="SVGID_36_" gradientUnits="userSpaceOnUse" x1="2" y1="99.6553" x2="64.643" y2="99.6553">
		<stop  offset="0" style="stop-color:#822A81"/>
		<stop  offset="1" style="stop-color:#27AAE1"/>
	</linearGradient>
	<use xlink:href="#SVGID_35_"  style="overflow:visible;fill:url(#SVGID_36_);"/>
	<clipPath id="SVGID_37_">
		<use xlink:href="#SVGID_35_"  style="overflow:visible;"/>
	</clipPath>
	<linearGradient id="SVGID_38_" gradientUnits="userSpaceOnUse" x1="1.4492" y1="101.7565" x2="65.1938" y2="101.7565">
		<stop  offset="0" style="stop-color:#822A81"/>
		<stop  offset="1" style="stop-color:#27AAE1"/>
	</linearGradient>
	<rect x="1.4" y="72.6" class="st9" width="63.7" height="58.3"/>
</g>
<g>
	<defs>
		<path id="SVGID_39_" d="M394.5,126.7c0.9-0.8,1.7-1.8,2.2-2.7l8.8-15.3c2.2-3.8,2.2-10.1,0-13.9l-8.8-15.3
			c-2.2-3.8-7.6-6.9-12-6.9H367c-4.4,0-9.8,3.1-12,6.9l-8.8,15.3c-2.2,3.8-2.2,10.1,0,13.9L355,124c0.6,1,1.3,1.9,2.2,2.7
			L394.5,126.7z"/>
	</defs>
	<linearGradient id="SVGID_40_" gradientUnits="userSpaceOnUse" x1="344.5274" y1="99.6553" x2="407.1704" y2="99.6553">
		<stop  offset="0" style="stop-color:#C61880"/>
		<stop  offset="0.3642" style="stop-color:#AF2180"/>
		<stop  offset="1" style="stop-color:#822A81"/>
	</linearGradient>
	<use xlink:href="#SVGID_39_"  style="overflow:visible;fill:url(#SVGID_40_);"/>
	<clipPath id="SVGID_41_">
		<use xlink:href="#SVGID_39_"  style="overflow:visible;"/>
	</clipPath>
	<linearGradient id="SVGID_42_" gradientUnits="userSpaceOnUse" x1="343.9767" y1="101.7565" x2="407.7212" y2="101.7565">
		<stop  offset="0" style="stop-color:#C61880"/>
		<stop  offset="0.3642" style="stop-color:#AF2180"/>
		<stop  offset="1" style="stop-color:#822A81"/>
	</linearGradient>
	<rect x="344" y="72.6" class="st10" width="63.7" height="58.3"/>
</g>
<g>
	<defs>
		<path id="SVGID_43_" d="M508.6,126.7c0.9-0.8,1.7-1.8,2.2-2.7l8.8-15.3c2.2-3.8,2.2-10.1,0-13.9l-8.8-15.3
			c-2.2-3.8-7.6-6.9-12-6.9h-17.7c-4.4,0-9.8,3.1-12,6.9l-8.8,15.3c-2.2,3.8-2.2,10.1,0,13.9l8.8,15.3c0.6,1,1.3,1.9,2.2,2.7
			L508.6,126.7z"/>
	</defs>
	<use xlink:href="#SVGID_43_"  style="overflow:visible;"/>
	<clipPath id="SVGID_44_">
		<use xlink:href="#SVGID_43_"  style="overflow:visible;"/>
	</clipPath>
	<rect x="458.2" y="72.6" class="st11" width="63.7" height="58.3"/>
</g>
<g>
	<defs>
		<path id="SVGID_45_" d="M523.3,274.3c-35.5-30.6-84.3-51.8-126.4-51.8H0v51.8H523.3z"/>
	</defs>
	<linearGradient id="SVGID_46_" gradientUnits="userSpaceOnUse" x1="0" y1="248.4533" x2="523.3317" y2="248.4533">
		<stop  offset="0" style="stop-color:#EBC51C"/>
		<stop  offset="0.3329" style="stop-color:#ECB020"/>
		<stop  offset="1" style="stop-color:#EE7E22"/>
	</linearGradient>
	<use xlink:href="#SVGID_45_"  style="overflow:visible;fill:url(#SVGID_46_);"/>
	<clipPath id="SVGID_47_">
		<use xlink:href="#SVGID_45_"  style="overflow:visible;"/>
	</clipPath>
	<linearGradient id="SVGID_48_" gradientUnits="userSpaceOnUse" x1="638.8638" y1="222.5734" x2="638.8638" y2="222.5734">
		<stop  offset="0" style="stop-color:#EBC51C"/>
		<stop  offset="0.3329" style="stop-color:#ECB020"/>
		<stop  offset="1" style="stop-color:#EE7E22"/>
	</linearGradient>
	<path class="st12" d="M638.9,222.6"/>
	<linearGradient id="SVGID_49_" gradientUnits="userSpaceOnUse" x1="-220.3102" y1="615.6553" x2="-220.3102" y2="615.6553">
		<stop  offset="0" style="stop-color:#EBC51C"/>
		<stop  offset="0.3329" style="stop-color:#ECB020"/>
		<stop  offset="1" style="stop-color:#EE7E22"/>
	</linearGradient>
	<line class="st13" x1="-220.3" y1="1008.7" x2="-220.3" y2="222.6"/>
</g>
<g>
	<defs>
		<path id="SVGID_50_" d="M523.3,357.9c-35.5-30.6-84.3-51.8-126.4-51.8H0v51.8H523.3z"/>
	</defs>
	<linearGradient id="SVGID_51_" gradientUnits="userSpaceOnUse" x1="0" y1="332.0533" x2="523.3317" y2="332.0533">
		<stop  offset="0" style="stop-color:#822A81"/>
		<stop  offset="1" style="stop-color:#27AAE1"/>
	</linearGradient>
	<use xlink:href="#SVGID_50_"  style="overflow:visible;fill:url(#SVGID_51_);"/>
	<clipPath id="SVGID_52_">
		<use xlink:href="#SVGID_50_"  style="overflow:visible;"/>
	</clipPath>
	<linearGradient id="SVGID_53_" gradientUnits="userSpaceOnUse" x1="638.8638" y1="306.1734" x2="638.8638" y2="306.1734">
		<stop  offset="0" style="stop-color:#822A81"/>
		<stop  offset="1" style="stop-color:#27AAE1"/>
	</linearGradient>
	<path class="st14" d="M638.9,306.2"/>
	<linearGradient id="SVGID_54_" gradientUnits="userSpaceOnUse" x1="-220.3102" y1="699.2553" x2="-220.3102" y2="699.2553">
		<stop  offset="0" style="stop-color:#822A81"/>
		<stop  offset="1" style="stop-color:#27AAE1"/>
	</linearGradient>
	<line class="st15" x1="-220.3" y1="1092.3" x2="-220.3" y2="306.2"/>
</g>
<g>
	<defs>
		<path id="SVGID_55_" d="M523.3,441.5c-35.5-30.6-84.3-51.8-126.4-51.8H0v51.8H523.3z"/>
	</defs>
	<linearGradient id="SVGID_56_" gradientUnits="userSpaceOnUse" x1="0" y1="415.6533" x2="523.3317" y2="415.6533">
		<stop  offset="0" style="stop-color:#138DB3"/>
		<stop  offset="1" style="stop-color:#2BAD67"/>
	</linearGradient>
	<use xlink:href="#SVGID_55_"  style="overflow:visible;fill:url(#SVGID_56_);"/>
	<clipPath id="SVGID_57_">
		<use xlink:href="#SVGID_55_"  style="overflow:visible;"/>
	</clipPath>
	<linearGradient id="SVGID_58_" gradientUnits="userSpaceOnUse" x1="638.8638" y1="389.7734" x2="638.8638" y2="389.7734">
		<stop  offset="0" style="stop-color:#138DB3"/>
		<stop  offset="1" style="stop-color:#2BAD67"/>
	</linearGradient>
	<path class="st16" d="M638.9,389.8"/>
	<linearGradient id="SVGID_59_" gradientUnits="userSpaceOnUse" x1="-220.3102" y1="782.8553" x2="-220.3102" y2="782.8553">
		<stop  offset="0" style="stop-color:#138DB3"/>
		<stop  offset="1" style="stop-color:#2BAD67"/>
	</linearGradient>
	<line class="st17" x1="-220.3" y1="1175.9" x2="-220.3" y2="389.8"/>
</g>
<g>
	<defs>
		<path id="SVGID_60_" d="M523.3,525.1c-35.5-30.6-84.3-51.8-126.4-51.8H0v51.8H523.3z"/>
	</defs>
	<linearGradient id="SVGID_61_" gradientUnits="userSpaceOnUse" x1="0" y1="499.2533" x2="523.3317" y2="499.2533">
		<stop  offset="0" style="stop-color:#C61880"/>
		<stop  offset="0.3642" style="stop-color:#AF2180"/>
		<stop  offset="1" style="stop-color:#822A81"/>
	</linearGradient>
	<use xlink:href="#SVGID_60_"  style="overflow:visible;fill:url(#SVGID_61_);"/>
	<clipPath id="SVGID_62_">
		<use xlink:href="#SVGID_60_"  style="overflow:visible;"/>
	</clipPath>
	<linearGradient id="SVGID_63_" gradientUnits="userSpaceOnUse" x1="638.8638" y1="473.3734" x2="638.8638" y2="473.3734">
		<stop  offset="0" style="stop-color:#C61880"/>
		<stop  offset="0.3642" style="stop-color:#AF2180"/>
		<stop  offset="1" style="stop-color:#822A81"/>
	</linearGradient>
	<path class="st18" d="M638.9,473.4"/>
	<linearGradient id="SVGID_64_" gradientUnits="userSpaceOnUse" x1="-220.3102" y1="866.4553" x2="-220.3102" y2="866.4553">
		<stop  offset="0" style="stop-color:#C61880"/>
		<stop  offset="0.3642" style="stop-color:#AF2180"/>
		<stop  offset="1" style="stop-color:#822A81"/>
	</linearGradient>
	<line class="st19" x1="-220.3" y1="1259.5" x2="-220.3" y2="473.4"/>
</g>
<g>
	<defs>
		<path id="SVGID_65_" d="M523.3,692.3c-35.5-30.6-84.3-51.8-126.4-51.8H0v51.8H523.3z"/>
	</defs>
	<linearGradient id="SVGID_66_" gradientUnits="userSpaceOnUse" x1="0" y1="666.4532" x2="523.3317" y2="666.4532">
		<stop  offset="0" style="stop-color:#0066A0"/>
		<stop  offset="1" style="stop-color:#4495D1"/>
	</linearGradient>
	<use xlink:href="#SVGID_65_"  style="overflow:visible;fill:url(#SVGID_66_);"/>
	<clipPath id="SVGID_67_">
		<use xlink:href="#SVGID_65_"  style="overflow:visible;"/>
	</clipPath>
	<linearGradient id="SVGID_68_" gradientUnits="userSpaceOnUse" x1="638.8638" y1="640.5734" x2="638.8638" y2="640.5734">
		<stop  offset="0" style="stop-color:#0066A0"/>
		<stop  offset="1" style="stop-color:#4495D1"/>
	</linearGradient>
	<path class="st20" d="M638.9,640.6"/>
	<linearGradient id="SVGID_69_" gradientUnits="userSpaceOnUse" x1="-220.3102" y1="1033.6553" x2="-220.3102" y2="1033.6553">
		<stop  offset="0" style="stop-color:#0066A0"/>
		<stop  offset="1" style="stop-color:#4495D1"/>
	</linearGradient>
	<line class="st21" x1="-220.3" y1="1426.7" x2="-220.3" y2="640.6"/>
</g>
<g>
	<defs>
		<path id="SVGID_70_" d="M523.3,608.7C487.9,578.1,439,557,396.9,557H0v51.8H523.3z"/>
	</defs>
	<use xlink:href="#SVGID_70_"  style="overflow:visible;"/>
	<clipPath id="SVGID_71_">
		<use xlink:href="#SVGID_70_"  style="overflow:visible;"/>
	</clipPath>
	<path class="st22" d="M638.9,557"/>
	<line class="st22" x1="-220.3" y1="1343.1" x2="-220.3" y2="557"/>
</g>
</svg>
